<svg width="606" height="585" viewBox="0 0 606 585" fill="none" xmlns="http://www.w3.org/2000/svg">
<g filter="url(#filter0_f)">
<path d="M186.956 33.5959C176.061 33.5959 165.992 39.4087 160.544 48.8447L38.9003 259.539C33.4524 268.975 33.4524 280.6 38.9003 290.036L160.544 500.73C165.992 510.166 176.061 515.979 186.956 515.979L430.245 515.979C441.141 515.979 451.209 510.167 456.657 500.73L578.301 290.037C583.749 280.6 583.749 268.975 578.301 259.539L456.657 48.8448C451.209 39.4087 441.141 33.5959 430.245 33.5959L186.956 33.5959Z" fill="#D5E5FF"/>
</g>
<path d="M170.27 62.8322C159.267 62.8322 149.1 68.702 143.599 78.2305L20.763 290.989C15.2617 300.517 15.2617 312.257 20.763 321.785L143.599 534.544C149.1 544.072 159.267 549.942 170.27 549.942L415.942 549.942C426.944 549.942 437.111 544.072 442.613 534.544L565.449 321.785C570.95 312.257 570.95 300.517 565.449 290.989L442.613 78.2304C437.111 68.7019 426.944 62.8322 415.942 62.8322L170.27 62.8322Z" fill="#D5E5FF"/>
<defs>
<filter id="filter0_f" x="11.6365" y="10.4177" width="593.928" height="528.74" filterUnits="userSpaceOnUse" color-interpolation-filters="sRGB">
<feFlood flood-opacity="0" result="BackgroundImageFix"/>
<feBlend mode="normal" in="SourceGraphic" in2="BackgroundImageFix" result="shape"/>
<feGaussianBlur stdDeviation="11.589" result="effect1_foregroundBlur"/>
</filter>
</defs>
</svg>
